<svg width="16" height="16" viewBox="0 0 16 16" fill="none" xmlns="http://www.w3.org/2000/svg">
<path d="M11.8761 4.171L8.37606 0.171C8.28106 0.063 8.14406 0 8.00006 0C7.85606 0 7.71906 0.063 7.62406 0.171L4.12406 4.171C3.99506 4.319 3.96306 4.528 4.04506 4.707C4.12606 4.885 4.30406 5 4.50006 5H6.50006V11.5C6.50006 11.776 6.72406 12 7.00006 12H9.00006C9.27606 12 9.50006 11.776 9.50006 11.5V5H11.5001C11.6961 5 11.8741 4.886 11.9551 4.707C12.0361 4.528 12.0061 4.318 11.8761 4.171Z" fill="#111111"/>
<path d="M13.5 11V14H2.5V11H0.5V15C0.5 15.553 0.948 16 1.5 16H14.5C15.053 16 15.5 15.553 15.5 15V11H13.5Z" fill="#111111"/>
</svg>
