<svg width="16" height="17" viewBox="0 0 16 17" fill="none" xmlns="http://www.w3.org/2000/svg">
<g clip-path="url(#clip0)">
<path d="M8 0.991699C5.67378 0.991699 3.78125 2.88423 3.78125 5.21045C3.78125 7.53667 5.67378 9.4292 8 9.4292C10.3262 9.4292 12.2188 7.53667 12.2188 5.21045C12.2188 2.88423 10.3262 0.991699 8 0.991699Z" fill="#111111"/>
<path d="M13.2489 12.1853C12.0939 11.0125 10.5628 10.3667 8.9375 10.3667H7.0625C5.43725 10.3667 3.90606 11.0125 2.75106 12.1853C1.60172 13.3523 0.96875 14.8927 0.96875 16.5229C0.96875 16.7818 1.17862 16.9917 1.4375 16.9917H14.5625C14.8214 16.9917 15.0312 16.7818 15.0312 16.5229C15.0312 14.8927 14.3983 13.3523 13.2489 12.1853Z" fill="#111111"/>
</g>
<defs>
<clipPath id="clip0">
<rect width="16" height="16" fill="white" transform="translate(0 0.991699)"/>
</clipPath>
</defs>
</svg>
