<svg width="16" height="17" viewBox="0 0 16 17" fill="none" xmlns="http://www.w3.org/2000/svg">
<g clip-path="url(#clip0)">
<path d="M10.0001 5.32495C9.63215 5.32495 9.33349 5.02628 9.33349 4.65828V3.65828H6.66683V4.65828C6.66683 5.02628 6.36816 5.32495 6.00016 5.32495C5.63216 5.32495 5.3335 5.02628 5.3335 4.65828V3.65828C5.3335 2.92295 5.93149 2.32495 6.66683 2.32495H9.33349C10.0688 2.32495 10.6668 2.92295 10.6668 3.65828V4.65828C10.6668 5.02628 10.3681 5.32495 10.0001 5.32495Z" fill="#111111"/>
<path d="M8.47333 11.245C8.35333 11.2917 8.18 11.325 8 11.325C7.82 11.325 7.64667 11.2917 7.48667 11.2317L0 8.73837V13.825C0 14.8384 0.82 15.6584 1.83333 15.6584H14.1667C15.18 15.6584 16 14.8384 16 13.825V8.73837L8.47333 11.245Z" fill="#111111"/>
<path d="M16 6.15828V7.68495L8.16 10.2983C8.10667 10.3183 8.05333 10.325 8 10.325C7.94667 10.325 7.89333 10.3183 7.84 10.2983L0 7.68495V6.15828C0 5.14495 0.82 4.32495 1.83333 4.32495H14.1667C15.18 4.32495 16 5.14495 16 6.15828Z" fill="#111111"/>
</g>
<defs>
<clipPath id="clip0">
<rect width="16" height="16" fill="white" transform="translate(0 0.991699)"/>
</clipPath>
</defs>
</svg>
